<svg xmlns="http://www.w3.org/2000/svg" viewBox="0 0 512 512">
  <!-- White circle background for contrast on dark navbar -->
  <circle cx="256" cy="256" r="240" fill="#ffffff"/>

  <!-- Simplified urn body - bold and readable at small sizes -->
  <path d="M195 350 Q195 385 215 405 L297 405 Q317 385 317 350 L323 275 Q325 245 308 228 L300 220 Q325 200 325 175 L325 165 Q325 150 310 150 L202 150 Q187 150 187 165 L187 175 Q187 200 212 220 L204 228 Q187 245 189 275 Z"
        fill="#800000"/>

  <!-- Urn rim -->
  <rect x="183" y="140" width="146" height="16" rx="4" fill="#800000"/>

  <!-- Urn base -->
  <rect x="212" y="405" width="88" height="11" rx="4" fill="#800000"/>
  <rect x="224" y="416" width="64" height="9" rx="3" fill="#800000"/>

  <!-- Colored balls inside -->
  <circle cx="236" cy="335" r="20" fill="#7EBEC5"/>
  <circle cx="276" cy="335" r="20" fill="#fcb900"/>
  <circle cx="256" cy="298" r="20" fill="#7EBEC5"/>

  <!-- Ball being drawn out -->
  <circle cx="256" cy="95" r="18" fill="#7EBEC5"/>

  <!-- Dashed line -->
  <path d="M256 118 L256 138" stroke="#800000" stroke-width="4" stroke-dasharray="5,3"/>
</svg>
